<svg xmlns="http://www.w3.org/2000/svg" width="246.422" height="195.928" viewBox="0 0 246.422 195.928"><defs><style>.a{fill:#f9f9f9;stroke:#f5f5f5;}.b{fill:#fff;stroke:#c6d0f0;stroke-miterlimit:10;}.c{fill:#f23b3b;}.d{fill:#f4ea3d;}.e{fill:#8def1b;}.f{fill:#c6d0f0;}.g{stroke:none;}.h{fill:none;}</style></defs><g transform="translate(-59.094 -216.016)"><path class="a" d="M282.4,117.546c30.788,15.67,41.173,77.294,21.637,122.162C281.2,292.15,220.44,314.924,170.865,308.056,132.1,302.685,84.107,278.03,72.285,232.8c-8.228-31.483-2.576-74.531,19.025-91.323,16.043-12.472,31.929-3.5,60.343-.288C225.632,149.546,251.86,102,282.4,117.546Z" transform="translate(-8.96 102.076)"/><g transform="translate(30.674 217.62)"><g class="b" transform="translate(72.659 59.879)"><rect class="g" width="181.667" height="111.525" rx="4"/><rect class="h" x="0.5" y="0.5" width="180.667" height="110.525" rx="3.5"/></g><g class="b" transform="translate(72.659 59.879)"><path class="g" d="M4,0H177.667a4,4,0,0,1,4,4V14.551a0,0,0,0,1,0,0H0a0,0,0,0,1,0,0V4A4,4,0,0,1,4,0Z"/><path class="h" d="M4,.5H177.667a3.5,3.5,0,0,1,3.5,3.5v9.551a.5.5,0,0,1-.5.5H1a.5.5,0,0,1-.5-.5V4A3.5,3.5,0,0,1,4,.5Z"/></g><circle class="c" cx="3" cy="3" r="3" transform="translate(77.549 70.38) rotate(-90)"/><circle class="d" cx="3" cy="3" r="3" transform="translate(87.582 64.38)"/><circle class="e" cx="3" cy="3" r="3" transform="translate(97.63 64.38)"/><path class="f" d="M157.275,127.458H91.9a4.249,4.249,0,0,1-4.236-4.236h0a4.249,4.249,0,0,1,4.236-4.236h65.375a4.249,4.249,0,0,1,4.237,4.236h0A4.249,4.249,0,0,1,157.275,127.458Z" transform="translate(-4.882 -35.139)"/><path class="f" d="M240.565,166.9H198.882c-3.235,0-5.882-1.907-5.882-4.237h0c0-2.33,2.647-4.236,5.882-4.236h41.682c3.235,0,5.883,1.906,5.883,4.236h0C246.447,164.99,243.8,166.9,240.565,166.9Z" transform="translate(-70.279 -56.761)"/><path class="f" d="M240.565,166.9H198.882c-3.235,0-5.882-1.907-5.882-4.237h0c0-2.33,2.647-4.236,5.882-4.236h41.682c3.235,0,5.883,1.906,5.883,4.236h0C246.447,164.99,243.8,166.9,240.565,166.9Z" transform="translate(-70.279 -38.945)"/><path class="f" d="M242.387,166.9H199.108c-3.359,0-6.108-1.907-6.108-4.237h0c0-2.33,2.749-4.236,6.108-4.236h43.279c3.359,0,6.108,1.906,6.108,4.236h0C248.5,164.99,245.746,166.9,242.387,166.9Z" transform="translate(-4.943 -56.761)"/><path class="f" d="M242.387,166.9H199.108c-3.359,0-6.108-1.907-6.108-4.237h0c0-2.33,2.749-4.236,6.108-4.236h43.279c3.359,0,6.108,1.906,6.108,4.236h0C248.5,164.99,245.746,166.9,242.387,166.9Z" transform="translate(-4.943 -38.945)"/><path class="f" d="M409.451,127.458H333.888a4.249,4.249,0,0,1-4.236-4.236h0a4.249,4.249,0,0,1,4.236-4.236h75.562a4.249,4.249,0,0,1,4.236,4.236h0A4.249,4.249,0,0,1,409.451,127.458Z" transform="translate(-169.918 -35.217)"/><path class="f" d="M313.378,238.458H196.358a3.551,3.551,0,0,1-3.358-3.7h0a3.551,3.551,0,0,1,3.358-3.7h117.02a3.551,3.551,0,0,1,3.358,3.7h0A3.551,3.551,0,0,1,313.378,238.458Z" transform="translate(-72.967 -93.768)"/><rect class="f" width="159.539" height="8.473" rx="4.236" transform="translate(84.129 154.301)"/><rect class="f" width="30.6" height="48.204" rx="13.807" transform="translate(84.8 96.778)"/></g></g></svg>